<svg width="270" height="126" viewBox="0 0 270 126" fill="none" xmlns="http://www.w3.org/2000/svg">
<g clip-path="url(#clip0_2310_101)">
<mask id="mask0_2310_101" style="mask-type:luminance" maskUnits="userSpaceOnUse" x="0" y="0" width="270" height="126">
<path d="M269.045 0H0V125.3H269.045V0Z" fill="white"/>
</mask>
<g mask="url(#mask0_2310_101)">
<mask id="mask1_2310_101" style="mask-type:luminance" maskUnits="userSpaceOnUse" x="0" y="7" width="67" height="72">
<path d="M66.7843 7.63281H0.636047V78.0031H66.7843V7.63281Z" fill="white"/>
</mask>
<g mask="url(#mask1_2310_101)">
<path d="M0.845276 42.9455C0.845276 35.4375 2.27801 29.0736 5.14347 23.8535C8.00895 18.6335 11.8851 14.6685 16.7719 11.9585C21.6588 9.24858 27.1342 7.89355 33.1984 7.89355C37.33 7.89355 41.1505 8.46555 44.6602 9.60953C48.1698 10.7534 51.2574 12.4194 53.923 14.6074C56.5885 16.7954 58.7543 19.4776 60.4202 22.654C62.0862 25.8305 63.1191 29.4623 63.5189 33.5495H46.8593C46.6372 31.8391 46.1818 30.2953 45.4932 28.9181C44.8046 27.5408 43.8939 26.3636 42.761 25.3862C41.6281 24.4089 40.2898 23.6592 38.746 23.1372C37.2022 22.6152 35.4974 22.3541 33.6315 22.3541C30.3218 22.3541 27.473 23.165 25.0851 24.7865C22.6972 26.408 20.8647 28.7515 19.5874 31.8168C18.3101 34.8822 17.6716 38.5918 17.6716 42.9455" fill="#344054"/>
<path d="M17.6716 42.9453C17.6716 47.4768 18.3213 51.2696 19.6207 54.3239C20.9202 57.3782 22.7528 59.6772 25.1184 61.221C27.4841 62.7648 30.2885 63.5367 33.5315 63.5367C35.353 63.5367 37.0134 63.3034 38.5128 62.837C40.0122 62.3705 41.3338 61.6875 42.4778 60.7878C43.6218 59.8882 44.5658 58.7887 45.3099 57.4892C46.054 56.1898 46.7918 54.7822 47.0805 53.1384L61.6237 61.1137C58.8445 65.5093 56.6107 68.5108 54.9225 70.1174C52.3903 72.5274 49.3083 74.4431 45.6765 75.8647C42.0446 77.2862 37.8853 77.9973 33.1984 77.9973C27.0232 77.9973 21.4977 76.6368 16.622 73.9158C11.7463 71.1949 7.8979 67.2241 5.07683 62.004C2.25579 56.784 0.845276 50.4311 0.845276 42.9453" fill="#039855"/>
<path d="M46.3298 62.1416L47.0094 53.2L60.8188 45.2959L56.8227 52.4429C56.1682 52.2978 55.4912 52.6467 55.2427 53.2572C54.9941 53.8678 55.2516 54.5497 55.8439 54.8481C56.4356 55.1467 57.1771 54.9693 57.5744 54.4334C57.9713 53.8978 57.9004 53.1714 57.4081 52.7386L61.3908 45.6159L61.7753 61.0207L54.0109 66.019L46.3298 62.1416Z" fill="#039855"/>
</g>
<path d="M120.155 77.3454L106.979 53.4303H103.279V77.3454H87.8474V13.9932H113.748C118.741 13.9932 122.983 14.8656 126.472 16.6103C130.022 18.355 132.669 20.7615 134.414 23.8299C136.159 26.8381 137.031 30.2072 137.031 33.9373C137.031 38.1488 135.828 41.909 133.421 45.218C131.075 48.5269 127.585 50.8733 122.952 52.2571L137.572 77.3454H120.155ZM103.279 42.5106H112.845C115.673 42.5106 117.778 41.8187 119.162 40.435C120.606 39.0512 121.328 37.0959 121.328 34.569C121.328 32.1625 120.606 30.2673 119.162 28.8836C117.778 27.4999 115.673 26.808 112.845 26.808H103.279V42.5106Z" fill="#344054"/>
<path d="M85.5475 13.9932L70.6005 16.5373L85.8655 59.152L85.5475 13.9932Z" fill="#1570EF"/>
<path fill-rule="evenodd" clip-rule="evenodd" d="M252.915 18.2159C247.921 15.5687 242.085 14.2451 235.407 14.2451H211.672V27.3575C211.821 27.3525 211.97 27.35 212.12 27.35H236.289C238.054 27.35 239.737 27.7006 241.272 28.336C243.944 29.1338 246.2 30.4532 248.041 32.2942C251.29 35.543 252.915 40.0853 252.915 45.9211C252.915 51.757 251.29 56.2693 248.041 59.4579C246.009 61.4521 243.472 62.8227 240.428 63.5697C239.128 64.005 237.736 64.2403 236.289 64.2403H234.606C234.542 64.241 234.478 64.241 234.414 64.241H227.104L212.12 64.2403C211.97 64.2403 211.821 64.2378 211.672 64.2327V77.5972H235.407C242.025 77.5972 247.831 76.2736 252.824 73.6264C257.878 70.9792 261.758 67.2488 264.466 62.436C267.233 57.623 268.617 52.118 268.617 45.9211C268.617 39.6642 267.233 34.1592 264.466 29.4063C261.758 24.5932 257.908 20.8631 252.915 18.2159Z" fill="#344054"/>
<path fill-rule="evenodd" clip-rule="evenodd" d="M213.837 57.9678C213.837 58.3412 214.14 58.6441 214.516 58.6441H229.442C229.816 58.6441 230.12 58.3455 230.12 57.9678V40.3235C230.12 39.9501 229.817 39.6473 229.442 39.6473H214.516C214.141 39.6473 213.837 39.9458 213.837 40.3235V57.9678ZM231.476 36.2613C231.476 35.8832 231.18 35.5765 230.796 35.5765H226.896C226.803 35.5765 226.669 35.5183 226.612 35.461L225.853 34.702C225.586 34.4355 225.062 34.2197 224.695 34.2197H219.262C218.888 34.2197 218.374 34.4317 218.104 34.702L217.345 35.461C217.281 35.5249 217.147 35.5765 217.06 35.5765H213.16C212.785 35.5765 212.48 35.8775 212.48 36.2613V37.6058C212.48 37.9839 212.779 38.2906 213.156 38.2906H230.801C231.174 38.2906 231.476 37.9896 231.476 37.6058V36.2613Z" fill="#D92D20"/>
<path fill-rule="evenodd" clip-rule="evenodd" d="M162.357 51.5123V13.6094H146.925V51.4221C146.925 57.0775 148.068 61.8905 150.355 65.8613C152.641 69.7716 155.74 72.7197 159.65 74.7054C163.621 76.6307 168.103 77.593 173.097 77.593C177.212 77.593 181.001 76.9188 184.463 75.5704H184.216V72.9468H189.542C190.701 72.1676 191.776 71.293 192.766 70.3231H184.216V67.6994H195.067C195.529 67.085 195.967 66.442 196.379 65.7709C196.521 65.542 196.657 65.3104 196.79 65.0757H184.216V62.4518H198.05C198.389 61.6095 198.684 60.735 198.935 59.8281H184.216V57.2044H199.52C199.666 56.3548 199.778 55.4802 199.857 54.5808H184.316C183.921 56.9168 183.039 58.8119 181.67 60.2661C179.744 62.3116 176.977 63.3345 173.368 63.3345C169.757 63.3345 167.02 62.3116 165.155 60.2661C163.29 58.2206 162.357 55.3026 162.357 51.5123ZM184.553 51.9571H199.986C199.988 51.7796 199.99 51.6013 199.99 51.4221V49.3334H184.557V51.5123C184.557 51.662 184.556 51.8102 184.553 51.9571ZM184.557 46.7098H199.99V44.0861H184.557V46.7098ZM184.557 41.4624H199.99V38.8388H184.557V41.4624ZM184.557 36.2151H199.99V33.5914H184.557V36.2151ZM184.557 30.9678H199.99V28.3441H184.557V30.9678ZM184.557 25.7204H199.99V23.0967H184.557V25.7204ZM184.557 20.4731H199.99V17.8494H184.557V20.4731ZM184.557 16.5376H199.99V13.6094H184.557V16.5376Z" fill="#344054"/>
<path fill-rule="evenodd" clip-rule="evenodd" d="M199.99 16.5371V51.4216C199.99 57.077 198.786 61.86 196.38 65.7705C193.973 69.6815 190.724 72.6289 186.633 74.6146C185.745 75.0522 184.833 75.4415 183.898 75.783V56.3498C184.338 54.9365 184.558 53.3239 184.558 51.5118V16.5371H199.99Z" fill="#DC6803"/>
<path d="M191.56 0.763072C191.813 0.395382 192.356 0.395382 192.608 0.763072L205.17 19.0394C205.46 19.4615 205.158 20.0357 204.646 20.0357H179.522C179.01 20.0357 178.708 19.4615 178.998 19.0394L191.56 0.763072Z" fill="#DC6803"/>
<path d="M0 92.8625C0 91.4575 1.13906 90.3184 2.54416 90.3184H266.501C267.906 90.3184 269.045 91.4575 269.045 92.8625V122.756C269.045 124.161 267.906 125.301 266.501 125.301H2.54417C1.13907 125.301 0 124.161 0 122.756V92.8625Z" fill="#344054"/>
</g>
<path d="M42.982 112.768H38.266L37.51 115H34.288L38.86 102.364H42.424L46.996 115H43.738L42.982 112.768ZM42.19 110.392L40.624 105.766L39.076 110.392H42.19ZM64.6055 108.664C64.6055 107.416 64.8755 106.306 65.4155 105.334C65.9555 104.35 66.7055 103.588 67.6655 103.048C68.6375 102.496 69.7355 102.22 70.9595 102.22C72.4595 102.22 73.7435 102.616 74.8115 103.408C75.8795 104.2 76.5935 105.28 76.9535 106.648H73.5695C73.3175 106.12 72.9575 105.718 72.4895 105.442C72.0335 105.166 71.5115 105.028 70.9235 105.028C69.9755 105.028 69.2075 105.358 68.6195 106.018C68.0315 106.678 67.7375 107.56 67.7375 108.664C67.7375 109.768 68.0315 110.65 68.6195 111.31C69.2075 111.97 69.9755 112.3 70.9235 112.3C71.5115 112.3 72.0335 112.162 72.4895 111.886C72.9575 111.61 73.3175 111.208 73.5695 110.68H76.9535C76.5935 112.048 75.8795 113.128 74.8115 113.92C73.7435 114.7 72.4595 115.09 70.9595 115.09C69.7355 115.09 68.6375 114.82 67.6655 114.28C66.7055 113.728 65.9555 112.966 65.4155 111.994C64.8755 111.022 64.6055 109.912 64.6055 108.664ZM103.444 112.768H98.7284L97.9724 115H94.7504L99.3224 102.364H102.886L107.458 115H104.2L103.444 112.768ZM102.652 110.392L101.086 105.766L99.5384 110.392H102.652ZM130.324 102.364C131.656 102.364 132.82 102.628 133.816 103.156C134.812 103.684 135.58 104.428 136.12 105.388C136.672 106.336 136.948 107.434 136.948 108.682C136.948 109.918 136.672 111.016 136.12 111.976C135.58 112.936 134.806 113.68 133.798 114.208C132.802 114.736 131.644 115 130.324 115H125.59V102.364H130.324ZM130.126 112.336C131.29 112.336 132.196 112.018 132.844 111.382C133.492 110.746 133.816 109.846 133.816 108.682C133.816 107.518 133.492 106.612 132.844 105.964C132.196 105.316 131.29 104.992 130.126 104.992H128.668V112.336H130.126ZM158.486 104.83V107.386H162.608V109.762H158.486V112.534H163.148V115H155.408V102.364H163.148V104.83H158.486ZM196.196 102.364V115H193.118V107.422L190.292 115H187.808L184.964 107.404V115H181.886V102.364H185.522L189.068 111.112L192.578 102.364H196.196ZM225.986 102.364L221.612 110.824V115H218.534V110.824L214.16 102.364H217.652L220.1 107.656L222.53 102.364H225.986Z" fill="white"/>
</g>
<defs>
<clipPath id="clip0_2310_101">
<rect width="269.045" height="125.3" fill="white"/>
</clipPath>
</defs>
</svg>
